<svg xmlns="http://www.w3.org/2000/svg" viewBox="0 0 397.48 401.43"><defs><style>.cls-1,.cls-3{fill:#fff;}.cls-2{fill:#58a6ff;}.cls-3{stroke:#fff;stroke-miterlimit:10;stroke-width:8.96px;}</style></defs><g id="Laag_2" data-name="Laag 2"><g id="Laag_1-2" data-name="Laag 1"><path class="cls-1" d="M315,319.41H76.86c-11.51,0-23,.09-34.52,0H41.6l-1.46,0c-3.73-.06,2,1-1.42-.31-.68-.27-4.12-1.82-1.4-.37-.78-.41-1.52-.89-2.3-1.3-3.11-1.64,1.22,1.76-1.09-.87-.58-.65-1.23-1.24-1.81-1.89,1.87,2.11.1,0-.33-.69s-1.53-3.29-.51-.58c-.31-.83-.49-1.73-.82-2.55-1.35-3.4-.24,2.31-.31-1.42,0-.48,0-.95,0-1.43-.07-3,0-6,0-8.94V78.18c0-1.68,0-3.35,0-5,0-.32,0-.64,0-1v-.11c0-.68.84-4.65,0-1.5a32.36,32.36,0,0,1,1.13-3.87C30,70.07,33.61,63.52,32.49,65s4.36-3.61,1.44-1.56a31.24,31.24,0,0,1,3.39-2c-.64.33-2.57.67.11,0-.09,0,4.17-1.08,2-.63s2.18-.1,2.15-.1h273.4c.94,0,1.9,0,2.83.15-3.73-.49,4.66,2.29,1.44.58a32.09,32.09,0,0,1,3.38,2c-.66-.47-1.67-1.76,0,.14-.07-.08,2.76,3.1,1.43,1.42s1.1,1.83,1,1.73c1.43,2,.5.84.17,0a32.4,32.4,0,0,1,1.14,3.87c-.65-2.55,0,.4,0,1.52,0,.87,0,1.74,0,2.6V194c0,37.62.24,75.25,0,112.88,0,.33,0,.66,0,1,0,.49,0,1,0,1.49,0,.81-.64,2.62,0,.1-.28,1.09-.56,2.17-.92,3.24-.71,2.1,1.82-2.47-.39.64-.51.71-.9,1.51-1.4,2.22,2.08-3-4,3.16-1.08,1.08-.71.5-1.51.89-2.22,1.4-2.86,2,2.17-.25-1.27.61-.87.22-1.75.46-2.61.69,3.08-.84-.78,0-1.5,0-7.84.21-15.37,6.75-15,15,.35,7.95,6.59,15.22,15,15a42.1,42.1,0,0,0,41.42-41.51c.07-3.46,0-6.93,0-10.38V91.83c0-17.67,1.65-35.94-12.6-49.51C330.34,29.5,314,30.64,297.16,30.64H156.39c-37.66,0-75.32-.1-113,0-12.71,0-25.07,4.58-33.34,14.59C2.83,54,.11,64.29.11,75.43V275.16c0,10.93-.25,21.89,0,32.82a42.09,42.09,0,0,0,41.47,41.43c2.9.06,5.8,0,8.69,0H315c7.84,0,15.36-6.9,15-15S323.39,319.41,315,319.41Z"/><rect class="cls-2" x="61.71" y="6.06" width="48.49" height="79.17" rx="9.19"/><path class="cls-2" d="M101,79.28H80.2c-4.36,0-12.28,1.82-12.53-4.24-.66-15.52,0-31.2,0-46.74V18.55c0-1.45-.31-3.5.42-4.83C69.39,11.35,73,12,75.24,12H87.92c4,0,15.55-2.23,16.33,3.42.74,5.37,0,11.36,0,16.76V62.58c0,3.36,2.13,16.3-3.24,16.7-7.6.55-7.66,12.47,0,11.91,8.49-.63,14.73-6.49,15.15-15.15.08-1.81,0-3.65,0-5.46V41.69c0-8.37.13-16.76,0-25.14C116,6,108.73.11,98.6.11c-9,0-18-.25-27,0C60.78.4,55.76,8.49,55.76,18.32V73c0,3.87.12,7.65,2.29,11.08,3.47,5.49,9.17,7.14,15.27,7.14H101C108.67,91.19,108.69,79.28,101,79.28Z"/><rect class="cls-2" x="154.68" y="6.06" width="48.49" height="79.17" rx="9.19"/><path class="cls-2" d="M194,79.28H173.17c-4.36,0-12.28,1.82-12.54-4.24-.65-15.52,0-31.2,0-46.74V18.55c0-1.45-.31-3.5.42-4.83,1.31-2.37,4.88-1.7,7.16-1.7h12.67c4,0,15.56-2.23,16.33,3.42.74,5.37,0,11.36,0,16.76V62.58c0,3.36,2.14,16.3-3.23,16.7-7.6.55-7.66,12.47,0,11.91,8.49-.63,14.73-6.49,15.14-15.15.09-1.81,0-3.65,0-5.46V41.69c0-8.37.14-16.76,0-25.14C209,6,201.7.11,191.56.11c-9,0-18-.25-27.05,0-10.76.29-15.79,8.38-15.79,18.21V73c0,3.87.13,7.65,2.3,11.08,3.47,5.49,9.17,7.14,15.26,7.14H194C201.64,91.19,201.65,79.28,194,79.28Z"/><rect class="cls-2" x="246.64" y="6.06" width="48.49" height="79.17" rx="9.19"/><path class="cls-2" d="M285.94,79.28H265.13c-4.35,0-12.28,1.82-12.53-4.24-.65-15.52,0-31.2,0-46.74V18.55c0-1.45-.31-3.5.42-4.83,1.3-2.37,4.88-1.7,7.16-1.7h12.67c4,0,15.55-2.23,16.33,3.42.74,5.37,0,11.36,0,16.76V62.58c0,3.36,2.13,16.3-3.24,16.7-7.59.55-7.65,12.47,0,11.91,8.5-.63,14.73-6.49,15.15-15.15.09-1.81,0-3.65,0-5.46V41.69c0-8.37.14-16.76,0-25.14C300.92,6,293.66.11,283.53.11c-9,0-18-.25-27,0-10.76.29-15.79,8.38-15.79,18.21V73c0,3.87.13,7.65,2.29,11.08,3.48,5.49,9.17,7.14,15.27,7.14h27.69C293.61,91.19,293.62,79.28,285.94,79.28Z"/><path class="cls-1" d="M25.84,129.35H331.45c7.85,0,15.37-6.9,15-15s-6.59-15-15-15H25.84c-7.85,0-15.37,6.9-15,15s6.59,15,15,15Z"/><path class="cls-1" d="M101.26,198.23c-9.46,0-19,.3-28.42,0-4-.13-4.15-2.34-4.15-5.8v-17.2c0-2.53-1.29-9.4.78-11.48s9-.78,11.48-.78H98.46c3.36,0,5.37.32,5.49,4.15.2,6.27,0,12.58,0,18.85,0,2.74,1.64,11.94-2.69,12.26-8.3.61-8.36,13.61,0,13C111.62,210.47,117,202.88,117,193V171.7c0-7.4-.19-14.93-7.41-19.36C104.09,149,96.86,150,90.74,150c-6.31,0-12.67-.22-19,0-9.36.34-15.82,7.11-16.07,16.36-.17,6.54,0,13.1,0,19.64s-.91,13.42,3.14,18.88c5.47,7.36,14.07,6.38,22.12,6.38h20.31C109.62,211.23,109.64,198.23,101.26,198.23Z"/><path class="cls-1" d="M193.2,197.51c-9.46,0-19,.3-28.42,0-4-.13-4.15-2.35-4.15-5.8v-17.2c0-2.54-1.29-9.4.78-11.48s9-.78,11.48-.78H190.4c3.36,0,5.37.31,5.49,4.14.2,6.27,0,12.58,0,18.86,0,2.74,1.64,11.94-2.69,12.26-8.3.61-8.36,13.61,0,13,10.36-.76,15.69-8.35,15.69-18.19V171c0-7.41-.19-14.94-7.41-19.36-5.45-3.34-12.68-2.37-18.8-2.37-6.31,0-12.67-.22-19,0-9.37.34-15.82,7.11-16.08,16.36-.17,6.53,0,13.1,0,19.64s-.91,13.42,3.15,18.88c5.46,7.36,14.06,6.38,22.11,6.38H193.2C201.56,210.51,201.58,197.51,193.2,197.51Z"/><path class="cls-1" d="M285.14,199c-9.46,0-19,.3-28.42,0-4-.13-4.14-2.34-4.14-5.8V176c0-2.53-1.3-9.4.78-11.48s9-.78,11.48-.78h17.5c3.36,0,5.37.32,5.49,4.15.2,6.27,0,12.58,0,18.85,0,2.74,1.64,11.94-2.69,12.26-8.29.61-8.36,13.61,0,13,10.36-.76,15.69-8.35,15.69-18.19V172.51c0-7.4-.19-14.94-7.4-19.36-5.46-3.34-12.69-2.37-18.81-2.37-6.31,0-12.66-.22-19,0-9.37.34-15.82,7.11-16.07,16.36-.18,6.54,0,13.1,0,19.64s-.92,13.42,3.14,18.88c5.47,7.36,14.06,6.38,22.12,6.38h20.3C293.5,212,293.52,199,285.14,199Z"/><path class="cls-1" d="M101.26,279.23c-9.46,0-19,.3-28.42,0-4-.13-4.15-2.34-4.15-5.8v-17.2c0-2.53-1.29-9.4.78-11.48s9-.78,11.48-.78H98.46c3.36,0,5.37.32,5.49,4.15.2,6.27,0,12.58,0,18.85,0,2.74,1.64,11.94-2.69,12.26-8.3.61-8.36,13.61,0,13C111.62,291.47,117,283.88,117,274V252.7c0-7.4-.19-14.93-7.41-19.36C104.09,230,96.86,231,90.74,231c-6.31,0-12.67-.22-19,0-9.36.34-15.82,7.11-16.07,16.36-.17,6.54,0,13.1,0,19.64s-.91,13.42,3.14,18.88c5.47,7.36,14.07,6.38,22.12,6.38h20.31C109.62,292.23,109.64,279.23,101.26,279.23Z"/><path class="cls-1" d="M193.2,278.51c-9.46,0-19,.3-28.42,0-4-.13-4.15-2.35-4.15-5.8v-17.2c0-2.54-1.29-9.4.78-11.48s9-.78,11.48-.78H190.4c3.36,0,5.37.31,5.49,4.14.2,6.27,0,12.58,0,18.86,0,2.74,1.64,11.94-2.69,12.26-8.3.61-8.36,13.61,0,13,10.36-.76,15.69-8.35,15.69-18.19V252c0-7.41-.19-14.94-7.41-19.36-5.45-3.34-12.68-2.37-18.8-2.37-6.31,0-12.67-.22-19,0-9.37.34-15.82,7.11-16.08,16.36-.17,6.53,0,13.1,0,19.64s-.91,13.42,3.15,18.88c5.46,7.36,14.06,6.38,22.11,6.38H193.2C201.56,291.51,201.58,278.51,193.2,278.51Z"/><path class="cls-1" d="M285.14,280c-9.46,0-19,.3-28.42,0-4-.13-4.14-2.34-4.14-5.8V257c0-2.53-1.3-9.4.78-11.48s9-.78,11.48-.78h17.5c3.36,0,5.37.32,5.49,4.15.2,6.27,0,12.58,0,18.85,0,2.74,1.64,11.94-2.69,12.26-8.29.61-8.36,13.61,0,13,10.36-.76,15.69-8.35,15.69-18.19V253.51c0-7.4-.19-14.94-7.4-19.36-5.46-3.34-12.69-2.37-18.81-2.37-6.31,0-12.66-.22-19,0-9.37.34-15.82,7.11-16.07,16.36-.18,6.54,0,13.1,0,19.64s-.92,13.42,3.14,18.88c5.47,7.36,14.06,6.38,22.12,6.38h20.3C293.5,293,293.52,280,285.14,280Z"/><rect class="cls-2" x="70.62" y="7.56" width="31.4" height="72.72" rx="9.19"/><path class="cls-1" d="M92.83,73.78H85.35c-1.89,0-5.65.74-7.26-.59-2-1.65-1-7.34-1-9.5V24.51c0-2.19-1-7.55.59-9.49,1.31-1.6,4.93-1,6.68-1,2.62,0,5.79-.55,8.35,0,3.79.82,2.78,5,2.78,8.09V63c0,2.68,1.42,10.51-2.69,10.81-8.29.61-8.36,13.61,0,13,10-.73,15.69-8,15.69-17.72V24.51c0-5.93.63-12-3.14-17.07C99.6-.34,89.46.9,80.88,1.06c-9.67.18-16.55,6.77-16.76,16.52-.32,14.34,0,28.73,0,43.08,0,6.6-1,14.13,3.14,19.74,6,8.11,16.7,6.38,25.57,6.38C101.2,86.78,101.21,73.78,92.83,73.78Z"/><rect class="cls-2" x="162.56" y="7.56" width="31.4" height="72.72" rx="9.19"/><path class="cls-1" d="M184.77,73.78h-7.48c-1.89,0-5.65.74-7.26-.59-2-1.65-1-7.34-1-9.5V24.51c0-2.19-1-7.55.59-9.49,1.31-1.6,4.93-1,6.68-1,2.62,0,5.79-.55,8.35,0,3.79.82,2.78,5,2.78,8.09V63c0,2.68,1.42,10.51-2.69,10.81-8.29.61-8.36,13.61,0,13,10-.73,15.69-8,15.69-17.72V24.51c0-5.93.63-12-3.14-17.07C191.54-.34,181.4.9,172.82,1.06c-9.67.18-16.55,6.77-16.76,16.52-.32,14.34,0,28.73,0,43.08,0,6.6-1,14.13,3.14,19.74,6,8.11,16.7,6.38,25.57,6.38C193.14,86.78,193.15,73.78,184.77,73.78Z"/><rect class="cls-2" x="254.5" y="7.56" width="31.4" height="72.72" rx="9.19"/><path class="cls-1" d="M276.71,73.78h-7.48c-1.88,0-5.65.74-7.26-.59-2-1.65-1-7.34-1-9.5V24.51c0-2.19-1-7.55.59-9.49,1.32-1.6,4.93-1,6.69-1,2.61,0,5.79-.55,8.34,0,3.79.82,2.79,5,2.79,8.09V63c0,2.68,1.41,10.51-2.7,10.81-8.29.61-8.36,13.61,0,13,10-.73,15.7-8,15.7-17.72V24.51c0-5.93.62-12-3.15-17.07C283.49-.34,273.35.9,264.77,1.06c-9.68.18-16.55,6.77-16.77,16.52-.31,14.34,0,28.73,0,43.08,0,6.6-1,14.13,3.14,19.74,6,8.11,16.7,6.38,25.57,6.38C285.08,86.78,285.09,73.78,276.71,73.78Z"/><circle class="cls-2" cx="303.08" cy="307.21" r="82.09"/><path class="cls-2" d="M372.85,307.21a64.46,64.46,0,0,1-3.58,22.17,72.8,72.8,0,0,1-10,19.26c-7,10-20.07,19.75-31.55,23.91a69.38,69.38,0,0,1-43.66,1.83c-13.8-3.88-25.44-11.49-35.19-23.09-18.31-21.79-20.61-55.09-5.64-80,7.34-12.23,17.78-21.37,31.36-27.84,11.83-5.63,28.6-7.4,41.55-4.78a70.43,70.43,0,0,1,56.67,68.58c.13,15.84,24.76,15.88,24.63,0a95.67,95.67,0,0,0-63.18-89.08C298.1,205,255,216.85,230.66,246.73c-25,30.75-29.26,74.54-8.65,108.88s61,51.64,100.05,44.06c43.65-8.46,75.05-48.53,75.42-92.46C397.61,291.36,373,291.35,372.85,307.21Z"/><path class="cls-1" d="M366.55,307.21c-.24,26-16.59,50.62-41.09,59.46-25.94,9.37-53.92,1.67-71.67-19.38-16.86-20-18.63-50.33-5.08-72.86s40.85-34.79,66.44-29.57a64.12,64.12,0,0,1,51.4,62.35c.13,14.41,22.54,14.45,22.4,0A87,87,0,0,0,332,226.39c-33.14-12.31-72.61-1.44-94.92,25.91-22.77,27.91-26.48,67.88-7.75,99s55.51,46.93,91.07,40c39.68-7.74,68.15-44.15,68.51-84.09C389.09,292.79,366.68,292.78,366.55,307.21Z"/><path class="cls-1" d="M266.52,281.21l31.28,31.28c6.8,6.81,17.36-3.75,10.56-10.56l-31.28-31.28c-6.81-6.8-17.37,3.76-10.56,10.56Z"/><circle class="cls-3" cx="303.08" cy="307.21" r="8.83"/></g></g></svg>